<svg width="90" height="49" viewBox="0 0 90 49" fill="none" xmlns="http://www.w3.org/2000/svg">
<path d="M18.5565 8.54545H23.1676V25.1754C23.1676 26.9983 22.7367 28.6017 21.875 29.9854C21.0215 31.3692 19.8201 32.4505 18.2706 33.2294C16.7211 34 14.9106 34.3853 12.8391 34.3853C10.7594 34.3853 8.94472 34 7.39524 33.2294C5.84576 32.4505 4.64429 31.3692 3.79084 29.9854C2.93738 28.6017 2.51065 26.9983 2.51065 25.1754V8.54545H7.1218V24.7901C7.1218 25.8507 7.35381 26.7953 7.81783 27.6239C8.29013 28.4525 8.95301 29.103 9.80646 29.5753C10.6599 30.0393 11.6708 30.2713 12.8391 30.2713C14.0075 30.2713 15.0183 30.0393 15.8718 29.5753C16.7335 29.103 17.3964 28.4525 17.8604 27.6239C18.3245 26.7953 18.5565 25.8507 18.5565 24.7901V8.54545ZM28.1796 34V8.54545H37.7251C39.6805 8.54545 41.3212 8.88518 42.6469 9.56463C43.981 10.2441 44.9877 11.197 45.6672 12.4233C46.3549 13.6413 46.6988 15.0624 46.6988 16.6864C46.6988 18.3188 46.3508 19.7357 45.6547 20.9371C44.967 22.1303 43.952 23.0542 42.6096 23.7088C41.2673 24.3551 39.6184 24.6783 37.6629 24.6783H30.8643V20.8501H37.0415C38.1849 20.8501 39.1212 20.6927 39.8504 20.3778C40.5796 20.0547 41.1182 19.5865 41.4662 18.9734C41.8225 18.3519 42.0006 17.5896 42.0006 16.6864C42.0006 15.7833 41.8225 15.0127 41.4662 14.3746C41.1099 13.7283 40.5671 13.2395 39.838 12.908C39.1088 12.5683 38.1684 12.3984 37.0166 12.3984H32.7907V34H28.1796ZM41.3295 22.4659L47.6309 34H42.4854L36.2957 22.4659H41.3295ZM50.9433 34V8.54545H55.5544V30.1346H66.7654V34H50.9433Z" fill="white"/>
<path d="M30.1367 41.1992C30.1003 40.8581 29.9466 40.5924 29.6758 40.4023C29.4076 40.2122 29.0586 40.1172 28.6289 40.1172C28.3268 40.1172 28.0677 40.1628 27.8516 40.2539C27.6354 40.3451 27.4701 40.4687 27.3555 40.625C27.2409 40.7812 27.1823 40.9596 27.1797 41.1602C27.1797 41.3268 27.2174 41.4714 27.293 41.5937C27.3711 41.7161 27.4766 41.8203 27.6094 41.9062C27.7422 41.9896 27.8893 42.0599 28.0508 42.1172C28.2122 42.1745 28.375 42.2227 28.5391 42.2617L29.2891 42.4492C29.5911 42.5195 29.8815 42.6146 30.1602 42.7344C30.4414 42.8542 30.6927 43.0052 30.9141 43.1875C31.138 43.3698 31.3151 43.5898 31.4453 43.8477C31.5755 44.1055 31.6406 44.4076 31.6406 44.7539C31.6406 45.2227 31.5208 45.6354 31.2813 45.9922C31.0417 46.3464 30.6953 46.6237 30.2422 46.8242C29.7917 47.0221 29.2461 47.1211 28.6055 47.1211C27.9831 47.1211 27.4427 47.0247 26.9844 46.832C26.5286 46.6393 26.1719 46.3581 25.9141 45.9883C25.6589 45.6185 25.5208 45.168 25.5 44.6367H26.9258C26.9466 44.9154 27.0326 45.1471 27.1836 45.332C27.3346 45.5169 27.5313 45.6549 27.7734 45.7461C28.0182 45.8372 28.2917 45.8828 28.5938 45.8828C28.9089 45.8828 29.1849 45.8359 29.4219 45.7422C29.6615 45.6458 29.849 45.513 29.9844 45.3437C30.1198 45.1719 30.1888 44.9714 30.1914 44.7422C30.1888 44.5339 30.1276 44.362 30.0078 44.2266C29.888 44.0885 29.7201 43.974 29.5039 43.8828C29.2904 43.7891 29.0404 43.7057 28.7539 43.6328L27.8438 43.3984C27.1849 43.2292 26.6641 42.9727 26.2813 42.6289C25.901 42.2826 25.7109 41.8229 25.7109 41.25C25.7109 40.7786 25.8385 40.3659 26.0938 40.0117C26.3516 39.6576 26.7018 39.3828 27.1445 39.1875C27.5872 38.9896 28.0885 38.8906 28.6484 38.8906C29.2161 38.8906 29.7135 38.9896 30.1406 39.1875C30.5703 39.3828 30.9076 39.6549 31.1523 40.0039C31.3971 40.3503 31.5234 40.7487 31.5312 41.1992H30.1367ZM34.2842 43.4844V47H32.8701V39H34.2529V42.0195H34.3232C34.4639 41.681 34.6813 41.4141 34.9756 41.2187C35.2725 41.0208 35.6501 40.9219 36.1084 40.9219C36.5251 40.9219 36.8883 41.0091 37.1982 41.1836C37.5081 41.3581 37.7477 41.6133 37.917 41.9492C38.0889 42.2852 38.1748 42.6953 38.1748 43.1797V47H36.7607V43.3984C36.7607 42.9948 36.6566 42.681 36.4482 42.457C36.2425 42.2305 35.9535 42.1172 35.5811 42.1172C35.3311 42.1172 35.1071 42.1719 34.9092 42.2812C34.7139 42.388 34.5602 42.543 34.4482 42.7461C34.3389 42.9492 34.2842 43.1953 34.2842 43.4844ZM42.2334 47.1172C41.6475 47.1172 41.1396 46.9883 40.71 46.7305C40.2803 46.4727 39.9469 46.112 39.71 45.6484C39.4756 45.1849 39.3584 44.6432 39.3584 44.0234C39.3584 43.4036 39.4756 42.8607 39.71 42.3945C39.9469 41.9284 40.2803 41.5664 40.71 41.3086C41.1396 41.0508 41.6475 40.9219 42.2334 40.9219C42.8193 40.9219 43.3271 41.0508 43.7568 41.3086C44.1865 41.5664 44.5186 41.9284 44.7529 42.3945C44.9899 42.8607 45.1084 43.4036 45.1084 44.0234C45.1084 44.6432 44.9899 45.1849 44.7529 45.6484C44.5186 46.112 44.1865 46.4727 43.7568 46.7305C43.3271 46.9883 42.8193 47.1172 42.2334 47.1172ZM42.2412 45.9844C42.5589 45.9844 42.8245 45.8971 43.0381 45.7227C43.2516 45.5456 43.4105 45.3086 43.5146 45.0117C43.6214 44.7148 43.6748 44.3841 43.6748 44.0195C43.6748 43.6523 43.6214 43.3203 43.5146 43.0234C43.4105 42.724 43.2516 42.4857 43.0381 42.3086C42.8245 42.1315 42.5589 42.043 42.2412 42.043C41.9157 42.043 41.6449 42.1315 41.4287 42.3086C41.2152 42.4857 41.055 42.724 40.9482 43.0234C40.8441 43.3203 40.792 43.6523 40.792 44.0195C40.792 44.3841 40.8441 44.7148 40.9482 45.0117C41.055 45.3086 41.2152 45.5456 41.4287 45.7227C41.6449 45.8971 41.9157 45.9844 42.2412 45.9844ZM46.3086 47V41H47.6797V42H47.7422C47.8516 41.6536 48.0391 41.3867 48.3047 41.1992C48.5729 41.0091 48.8789 40.9141 49.2227 40.9141C49.3008 40.9141 49.388 40.918 49.4844 40.9258C49.5833 40.931 49.6654 40.9401 49.7305 40.9531V42.2539C49.6706 42.2331 49.5755 42.2148 49.4453 42.1992C49.3177 42.181 49.194 42.1719 49.0742 42.1719C48.8164 42.1719 48.5846 42.2279 48.3789 42.3398C48.1758 42.4492 48.0156 42.6016 47.8984 42.7969C47.7813 42.9922 47.7227 43.2174 47.7227 43.4727V47H46.3086ZM53.9883 41V42.0937H50.5391V41H53.9883ZM51.3906 39.5625H52.8047V45.1953C52.8047 45.3854 52.8333 45.5313 52.8906 45.6328C52.9505 45.7318 53.0286 45.7995 53.125 45.8359C53.2214 45.8724 53.3281 45.8906 53.4453 45.8906C53.5339 45.8906 53.6146 45.8841 53.6875 45.8711C53.763 45.8581 53.8203 45.8464 53.8594 45.8359L54.0977 46.9414C54.0221 46.9674 53.9141 46.9961 53.7734 47.0273C53.6354 47.0586 53.4661 47.0768 53.2656 47.082C52.9115 47.0924 52.5924 47.0391 52.3086 46.9219C52.0247 46.8021 51.7995 46.6172 51.6328 46.3672C51.4688 46.1172 51.388 45.8047 51.3906 45.4297V39.5625ZM57.7627 47.1172C57.1611 47.1172 56.6416 46.9922 56.2041 46.7422C55.7692 46.4896 55.4346 46.1328 55.2002 45.6719C54.9658 45.2083 54.8486 44.6628 54.8486 44.0352C54.8486 43.418 54.9658 42.8763 55.2002 42.4102C55.4372 41.9414 55.7679 41.5768 56.1924 41.3164C56.6169 41.0534 57.1156 40.9219 57.6885 40.9219C58.0583 40.9219 58.4072 40.9818 58.7354 41.1016C59.0661 41.2187 59.3577 41.401 59.6104 41.6484C59.8656 41.8958 60.0661 42.2109 60.2119 42.5937C60.3577 42.974 60.4307 43.4271 60.4307 43.9531V44.3867H55.5127V43.4336H59.0752C59.0726 43.1628 59.014 42.9219 58.8994 42.7109C58.7848 42.4974 58.6247 42.3294 58.4189 42.207C58.2158 42.0846 57.9788 42.0234 57.708 42.0234C57.4189 42.0234 57.165 42.0937 56.9463 42.2344C56.7275 42.3724 56.557 42.5547 56.4346 42.7812C56.3148 43.0052 56.2536 43.2513 56.251 43.5195V44.3516C56.251 44.7005 56.3148 45 56.4424 45.25C56.57 45.4974 56.7484 45.6875 56.9775 45.8203C57.2067 45.9505 57.4749 46.0156 57.7822 46.0156C57.988 46.0156 58.1742 45.987 58.3408 45.9297C58.5075 45.8698 58.652 45.7826 58.7744 45.668C58.8968 45.5534 58.9893 45.4115 59.0518 45.2422L60.3721 45.3906C60.2887 45.7396 60.1299 46.0443 59.8955 46.3047C59.6637 46.5625 59.3669 46.763 59.0049 46.9062C58.6429 47.0469 58.2288 47.1172 57.7627 47.1172ZM63.041 43.4844V47H61.627V41H62.9785V42.0195H63.0488C63.1868 41.6836 63.4069 41.4167 63.709 41.2187C64.0137 41.0208 64.39 40.9219 64.8379 40.9219C65.252 40.9219 65.6126 41.0104 65.9199 41.1875C66.2298 41.3646 66.4694 41.6211 66.6387 41.957C66.8105 42.293 66.8952 42.7005 66.8926 43.1797V47H65.4785V43.3984C65.4785 42.9974 65.3743 42.6836 65.166 42.457C64.9603 42.2305 64.6751 42.1172 64.3105 42.1172C64.0632 42.1172 63.8431 42.1719 63.6504 42.2812C63.4603 42.388 63.3105 42.543 63.2012 42.7461C63.0944 42.9492 63.041 43.1953 63.041 43.4844ZM70.9863 47.1172C70.3848 47.1172 69.8652 46.9922 69.4277 46.7422C68.9928 46.4896 68.6582 46.1328 68.4238 45.6719C68.1895 45.2083 68.0723 44.6628 68.0723 44.0352C68.0723 43.418 68.1895 42.8763 68.4238 42.4102C68.6608 41.9414 68.9915 41.5768 69.416 41.3164C69.8405 41.0534 70.3392 40.9219 70.9121 40.9219C71.2819 40.9219 71.6309 40.9818 71.959 41.1016C72.2897 41.2187 72.5814 41.401 72.834 41.6484C73.0892 41.8958 73.2897 42.2109 73.4355 42.5937C73.5814 42.974 73.6543 43.4271 73.6543 43.9531V44.3867H68.7363V43.4336H72.2988C72.2962 43.1628 72.2376 42.9219 72.123 42.7109C72.0085 42.4974 71.8483 42.3294 71.6426 42.207C71.4395 42.0846 71.2025 42.0234 70.9316 42.0234C70.6426 42.0234 70.3887 42.0937 70.1699 42.2344C69.9512 42.3724 69.7806 42.5547 69.6582 42.7812C69.5384 43.0052 69.4772 43.2513 69.4746 43.5195V44.3516C69.4746 44.7005 69.5384 45 69.666 45.25C69.7936 45.4974 69.972 45.6875 70.2012 45.8203C70.4303 45.9505 70.6986 46.0156 71.0059 46.0156C71.2116 46.0156 71.3978 45.987 71.5645 45.9297C71.7311 45.8698 71.8757 45.7826 71.998 45.668C72.1204 45.5534 72.2129 45.4115 72.2754 45.2422L73.5957 45.3906C73.5124 45.7396 73.3535 46.0443 73.1191 46.3047C72.8874 46.5625 72.5905 46.763 72.2285 46.9062C71.8665 47.0469 71.4525 47.1172 70.9863 47.1172ZM74.8506 47V41H76.2217V42H76.2842C76.3936 41.6536 76.5811 41.3867 76.8467 41.1992C77.1149 41.0091 77.4209 40.9141 77.7646 40.9141C77.8428 40.9141 77.93 40.918 78.0264 40.9258C78.1253 40.931 78.2074 40.9401 78.2725 40.9531V42.2539C78.2126 42.2331 78.1175 42.2148 77.9873 42.1992C77.8597 42.181 77.736 42.1719 77.6162 42.1719C77.3584 42.1719 77.1266 42.2279 76.9209 42.3398C76.7178 42.4492 76.5576 42.6016 76.4404 42.7969C76.3232 42.9922 76.2646 43.2174 76.2646 43.4727V47H74.8506Z" fill="#034357"/>
<rect y="2" width="57" height="3" fill="white"/>
</svg>
